# xmcd CD database file
#
# Track frame offsets:
#	150
#	19417
#	35180
#	55097
#	68993
#	87182
#	104107
#	118089
#	137511
#	162575
#
# Disc length: 2426 seconds
#
# Revision: 2
# Processed by: cddbd v1.5.1PL0 Copyright (c) Steve Scherf et al.
# Submitted via: CDex 1.51
#
DISCID=9309780a
DTITLE=Juan Luis Guerra - Colección romántica (Disco 2)
DYEAR=2001
DGENRE=Latin
TTITLE0=Bachata rosa
TTITLE1=Cuando te beso
TTITLE2=Estrellitas y duendes
TTITLE3=La hormiguita
TTITLE4=Viviré
TTITLE5=Palomita blanca
TTITLE6=Amapola
TTITLE7=Coronita de flores
TTITLE8=Señales de humo
TTITLE9=Testimonio
EXTD=YEAR: 2001
EXTT0=
EXTT1=
EXTT2=
EXTT3=
EXTT4=
EXTT5=
EXTT6=
EXTT7=
EXTT8=
EXTT9=
PLAYORDER=
